<svg xmlns="http://www.w3.org/2000/svg" width="24" height="24" fill="none" viewBox="0 0 24 24"><rect width="24" height="24" fill="url(#a)" rx="6"/><use href="#b"/><use href="#b"/><defs><linearGradient id="a" x1="23.539" x2="-.461" y1="24" y2="0" gradientUnits="userSpaceOnUse"><stop stop-color="#fbe18a"/><stop offset=".21" stop-color="#fcbb45"/><stop offset=".38" stop-color="#f75274"/><stop offset=".52" stop-color="#d53692"/><stop offset=".74" stop-color="#8f39ce"/><stop offset="1" stop-color="#5b4fe9"/></linearGradient><path id="b" fill="#fff" d="M9.892 12.073a2.185 2.185 0 1 1 4.37 0 2.185 2.185 0 0 1-4.37 0m-1.182 0a3.366 3.366 0 0 0 3.367 3.364 3.366 3.366 0 1 0-3.367-3.364m6.08-3.499a.786.786 0 1 0 .787-.786.79.79 0 0 0-.787.786m-5.362 8.832c-.64-.029-.987-.135-1.218-.225a2 2 0 0 1-.754-.49 2 2 0 0 1-.49-.753c-.09-.231-.197-.578-.226-1.217-.032-.691-.038-.899-.038-2.649s.007-1.956.038-2.648c.03-.639.136-.985.226-1.217.119-.306.26-.524.49-.753.23-.23.448-.372.754-.49.231-.09.579-.197 1.218-.226.691-.032.899-.038 2.649-.038s1.958.007 2.65.038c.639.03.986.136 1.217.226.306.118.525.26.754.49.23.229.372.448.49.753.091.231.197.578.227 1.217.031.692.038.899.038 2.649s-.007 1.956-.038 2.648c-.03.639-.137.986-.226 1.217-.12.306-.261.524-.49.753-.23.229-.449.37-.755.49-.23.09-.578.196-1.217.225-.691.032-.9.039-2.65.039s-1.958-.007-2.65-.039M9.374 5.56c-.698.032-1.175.143-1.592.305a3.2 3.2 0 0 0-1.161.755c-.365.365-.59.73-.757 1.161-.162.417-.272.893-.304 1.59-.033.7-.04.923-.04 2.703s.007 2.002.04 2.701c.032.698.142 1.174.304 1.59.168.432.392.798.757 1.162.364.364.73.588 1.161.755.417.162.894.273 1.592.305.7.032.922.04 2.703.04s2.004-.008 2.703-.04 1.175-.143 1.592-.305a3.2 3.2 0 0 0 1.161-.755 3.2 3.2 0 0 0 .756-1.161c.163-.417.274-.893.305-1.59.032-.7.04-.923.04-2.703s-.008-2.002-.04-2.701c-.032-.698-.142-1.174-.305-1.59a3.2 3.2 0 0 0-.756-1.162 3.2 3.2 0 0 0-1.16-.755c-.418-.162-.895-.274-1.592-.305-.7-.032-.923-.04-2.704-.04-1.78 0-2.004.008-2.703.04"/></defs></svg>