<svg xmlns="http://www.w3.org/2000/svg" width="24" height="24" fill="none" viewBox="0 0 24 24"><rect width="24" height="24" fill="red" rx="6"/><path fill="#fff" d="M11.413 6.04c-1.948.223-3.889 1.836-3.97 4.14-.05 1.408.34 2.463 1.649 2.76.568-1.025-.183-1.251-.3-1.993-.48-3.04 3.425-5.112 5.467-2.99 1.414 1.47.483 5.99-1.796 5.52-2.184-.45 1.069-4.047-.675-4.754-1.417-.574-2.17 1.756-1.498 2.914-.393 1.99-1.242 3.866-.898 6.363 1.113-.827 1.489-2.411 1.797-4.063.56.348.858.71 1.572.766 2.634.209 4.104-2.691 3.745-5.366-.32-2.371-2.631-3.578-5.093-3.297"/></svg>