<svg aria-hidden="true" style="position: absolute; width: 0; height: 0; overflow: hidden;" version="1.1"
    xmlns="http://www.w3.org/2000/svg" xmlns:xlink="http://www.w3.org/1999/xlink">
    <defs>
        <symbol id="google" viewBox="0 0 29 32">
            <path fill="#ea4335" style="fill: var(--color1, #ea4335)"
                d="M13.634 12.819l-11.467 11.796c0.129 0.448 0.36 0.861 0.677 1.208s0.709 0.618 1.149 0.793 0.914 0.249 1.387 0.216c0.473-0.033 0.932-0.171 1.342-0.405l12.903-7.215-5.99-6.393z">
            </path>
            <path fill="#fbbc04" style="fill: var(--color2, #fbbc04)"
                d="M25.229 10.814l-5.58-3.138-6.28 5.411 6.306 6.107 5.537-3.104c0.49-0.252 0.901-0.631 1.188-1.096s0.438-0.998 0.438-1.542c0-0.544-0.152-1.077-0.438-1.542s-0.698-0.844-1.188-1.096l0.017 0z">
            </path>
            <path fill="#4285f4" style="fill: var(--color3, #4285f4)"
                d="M2.167 2.232c-0.069 0.252-0.104 0.511-0.103 0.772v20.839c0.001 0.261 0.035 0.52 0.103 0.772l11.86-11.493-11.86-10.889z">
            </path>
            <path fill="#34a853" style="fill: var(--color4, #34a853)"
                d="M13.72 13.423l5.93-5.747-12.886-7.248c-0.485-0.279-1.036-0.426-1.598-0.428-1.394-0.003-2.62 0.906-2.999 2.223l11.553 11.2z">
            </path>
        </symbol>
        <symbol id="googleDisabled" viewBox="0 0 28 32">
            <path
                d="M26.088 12.891c2.441 1.354 2.441 4.864 0 6.218l-21.155 11.739c-2.37 1.315-5.281-0.399-5.281-3.109v-23.477c0-2.71 2.911-4.424 5.281-3.109l21.155 11.739z">
            </path>
        </symbol>
        <symbol id="burger" viewBox="0 0 29 32">
            <path stroke-linejoin="round" stroke-linecap="round" stroke-miterlimit="4" stroke-width="3.0968"
                d="M3.613 16h21.677"></path>
            <path stroke-linejoin="round" stroke-linecap="round" stroke-miterlimit="4" stroke-width="3.0968"
                d="M3.613 8h21.677"></path>
            <path stroke-linejoin="round" stroke-linecap="round" stroke-miterlimit="4" stroke-width="3.0968"
                d="M3.613 24h21.677"></path>
        </symbol>
        <symbol id="close" viewBox="0 0 32 32">
            <path fill="#055545" style="fill: var(--color1, #055545)"
                d="M32 3.721l-3.721-3.721-12.279 12.279-12.279-12.279-3.721 3.721 12.279 12.279-12.279 12.279 3.721 3.721 12.279-12.279 12.279 12.279 3.721-3.721-12.279-12.279 12.279-12.279z">
            </path>
        </symbol>
        <symbol id="forvard" viewBox="0 0 32 32">
            <path
                d="M15.689 26.061c-0.586-0.586-0.586-1.536 0-2.121l7.939-7.939-7.939-7.939c-0.586-0.586-0.586-1.536 0-2.121s1.536-0.586 2.121 0l9 9c0.586 0.586 0.586 1.536 0 2.121l-9 9c-0.586 0.586-1.536 0.586-2.121 0z">
            </path>
            <path
                d="M26 16c0 0.828-0.672 1.5-1.5 1.5h-18.25c-0.828 0-1.5-0.672-1.5-1.5s0.672-1.5 1.5-1.5h18.25c0.828 0 1.5 0.672 1.5 1.5z">
            </path>
        </symbol>
        <symbol id="back" viewBox="0 0 32 32">
            <path
                d="M16.311 5.939c0.586 0.586 0.586 1.536 0 2.121l-7.939 7.939 7.939 7.939c0.586 0.586 0.586 1.536 0 2.121s-1.536 0.586-2.121 0l-9-9c-0.586-0.586-0.586-1.536 0-2.121l9-9c0.586-0.586 1.536-0.586 2.121 0z">
            </path>
            <path
                d="M6 16c0-0.828 0.672-1.5 1.5-1.5h18.25c0.828 0 1.5 0.672 1.5 1.5s-0.672 1.5-1.5 1.5h-18.25c-0.828 0-1.5-0.672-1.5-1.5z">
            </path>
        </symbol>
        <symbol id="plus" viewBox="0 0 32 32">
            <path d="M14.667 17.333h-8v-2.667h8v-8h2.667v8h8v2.667h-8v8h-2.667v-8z"></path>
        </symbol>
        <symbol id="minus" viewBox="0 0 32 32">
            <path d="M6.667 17.333v-2.667h18.667v2.667h-18.667z"></path>
        </symbol>
    </defs>
</svg>